<svg width="35" height="35" viewBox="0 0 35 35" fill="none" xmlns="http://www.w3.org/2000/svg">
<path id="Vector" d="M0 17.1429C0 7.67571 7.67571 0 17.1429 0C26.61 0 34.2857 7.67571 34.2857 17.1429C34.2857 26.61 26.61 34.2857 17.1429 34.2857C7.67571 34.2857 0 26.61 0 17.1429ZM22.1429 15.7143C22.7112 15.7143 23.2562 15.4885 23.6581 15.0867C24.0599 14.6848 24.2857 14.1397 24.2857 13.5714C24.2857 13.0031 24.0599 12.4581 23.6581 12.0562C23.2562 11.6543 22.7112 11.4286 22.1429 11.4286C21.5745 11.4286 21.0295 11.6543 20.6276 12.0562C20.2258 12.4581 20 13.0031 20 13.5714C20 14.1397 20.2258 14.6848 20.6276 15.0867C21.0295 15.4885 21.5745 15.7143 22.1429 15.7143ZM14.2857 13.5714C14.2857 13.0031 14.0599 12.4581 13.6581 12.0562C13.2562 11.6543 12.7112 11.4286 12.1429 11.4286C11.5745 11.4286 11.0295 11.6543 10.6276 12.0562C10.2258 12.4581 10 13.0031 10 13.5714C10 14.1397 10.2258 14.6848 10.6276 15.0867C11.0295 15.4885 11.5745 15.7143 12.1429 15.7143C12.7112 15.7143 13.2562 15.4885 13.6581 15.0867C14.0599 14.6848 14.2857 14.1397 14.2857 13.5714ZM9.04 21.6143C8.8051 21.7742 8.64333 22.0208 8.59028 22.3C8.53724 22.5791 8.59726 22.868 8.75714 23.1029L8.76 23.1071L8.76286 23.1114L8.77429 23.1257C8.8188 23.1893 8.86501 23.2517 8.91286 23.3129C9.00571 23.4314 9.13857 23.5929 9.31286 23.7829C9.78238 24.2917 10.3027 24.7513 10.8657 25.1543C12.2514 26.1529 14.34 27.1429 17.1429 27.1429C19.9457 27.1429 22.0357 26.1514 23.42 25.1557C23.9835 24.7517 24.5043 24.2912 24.9743 23.7814C25.1535 23.5863 25.3228 23.3822 25.4814 23.17L25.5129 23.1271L25.5229 23.1129L25.5257 23.1071L25.5271 23.1043L25.5286 23.1029C25.6888 22.8681 25.7493 22.5794 25.6967 22.3001C25.644 22.0208 25.4826 21.7738 25.2479 21.6136C25.0131 21.4533 24.7244 21.3928 24.4451 21.4455C24.1658 21.4981 23.9188 21.6596 23.7586 21.8943L23.7486 21.9086C23.6377 22.0555 23.52 22.1971 23.3957 22.3329C23.0243 22.7344 22.6132 23.0972 22.1686 23.4157C21.0714 24.2057 19.4114 25 17.1429 25C14.8757 25 13.2143 24.2057 12.1171 23.4157C11.673 23.0977 11.2623 22.7354 10.8914 22.3343C10.7671 22.1985 10.6494 22.0569 10.5386 21.91L10.5257 21.8929C10.3652 21.6595 10.1188 21.4991 9.84036 21.4469C9.56193 21.3947 9.27417 21.4549 9.04 21.6143Z" fill="#FFE351"/>
</svg>
