<svg width="36" height="34" viewBox="0 0 36 34" fill="none" xmlns="http://www.w3.org/2000/svg">
<path d="M3.4143 0.749988C2.03859 0.0928447 0.527157 1.34999 0.920014 2.82284L3.80001 13.5843C3.87219 13.8547 4.02224 14.098 4.23151 14.2839C4.44079 14.4699 4.70007 14.5902 4.97716 14.63L19.0972 16.6471C19.5057 16.7043 19.5057 17.2957 19.0972 17.3543L4.97859 19.37C4.7015 19.4098 4.44222 19.5301 4.23294 19.716C4.02367 19.9019 3.87362 20.1452 3.80144 20.4157L0.920014 31.1828C0.527157 32.6543 2.03859 33.9114 3.4143 33.2557L34.1257 18.6143C35.4814 17.9686 35.4814 16.0371 34.1257 15.39L3.4143 0.749988Z" fill="#01858b"/>
</svg>
