<svg xmlns="http://www.w3.org/2000/svg" xmlns:xlink="http://www.w3.org/1999/xlink" version="1.1" width="256" height="256" viewBox="0 0 256 256" xml:space="preserve">

<defs>
</defs>
<g style="stroke: none; stroke-width: 0; stroke-dasharray: none; stroke-linecap: butt; stroke-linejoin: miter; stroke-miterlimit: 10; fill: none; fill-rule: nonzero; opacity: 1;" transform="translate(1.4065934065934016 1.4065934065934016) scale(2.81 2.81)" >
	<path d="M 26.12 28.122 l 10.948 4.806 c 0.951 -1.013 2.246 -1.697 3.702 -1.858 l 2.886 -12.411 c -0.3 -0.192 -0.579 -0.41 -0.84 -0.65 L 26.073 26.82 c 0.041 0.282 0.069 0.568 0.069 0.861 C 26.142 27.83 26.131 27.976 26.12 28.122 z" style="stroke: none; stroke-width: 1; stroke-dasharray: none; stroke-linecap: butt; stroke-linejoin: miter; stroke-miterlimit: 10; fill: rgb(188,188,188); fill-rule: nonzero; opacity: 1;" transform=" matrix(1 0 0 1 0 0) " stroke-linecap="round" />
	<path d="M 47.019 34.842 l 9.84 -0.877 c 0.188 -0.593 0.469 -1.145 0.821 -1.642 l -9.164 -12.948 c -0.312 0.088 -0.633 0.155 -0.964 0.191 l -2.886 12.411 C 45.724 32.656 46.554 33.656 47.019 34.842 z" style="stroke: none; stroke-width: 1; stroke-dasharray: none; stroke-linecap: butt; stroke-linejoin: miter; stroke-miterlimit: 10; fill: rgb(188,188,188); fill-rule: nonzero; opacity: 1;" transform=" matrix(1 0 0 1 0 0) " stroke-linecap="round" />
	<path d="M 85.494 52.366 c -0.26 -1.271 -1.339 -2.463 -2.97 -4.267 c -2.144 -2.372 -5.082 -5.619 -5.14 -8.43 c -0.149 -11.407 -1.843 -19.018 -5.701 -25.511 c -6.652 -10.316 -19.633 -15.61 -33.88 -13.82 C 22.597 2.249 10.325 11.888 5.786 25.463 C 2.159 35.747 5.95 61.98 20.614 71.11 c 0.25 0.983 -0.195 5.369 -4.95 16.072 c -0.275 0.619 -0.218 1.335 0.151 1.902 c 0.369 0.567 1 0.91 1.677 0.91 h 33.703 c 0.806 0 1.533 -0.484 1.844 -1.227 c 2.386 -5.698 5.264 -8.294 6.228 -8.408 l 0.426 0.067 c 0.011 0.002 0.023 0.001 0.034 0.003 c 0.011 0.002 0.022 0.006 0.033 0.007 c 11.003 1.357 14.854 0.749 17.916 -2.84 c 0.034 -0.041 0.067 -0.083 0.099 -0.126 c 1.732 -2.397 1.361 -5.316 0.695 -7.595 c 0.967 -0.377 2.349 -1.116 2.45 -2.867 c 0.062 -1.335 -0.408 -2.28 -1.102 -2.971 c 0.495 -0.309 0.925 -0.681 1.232 -1.129 c 0.54 -0.785 0.679 -1.71 0.391 -2.603 c -0.013 -0.039 -0.026 -0.078 -0.041 -0.116 c -0.133 -0.34 -0.344 -0.771 -0.576 -1.239 c -0.126 -0.253 -0.304 -0.61 -0.459 -0.953 c 1.707 -0.503 3.548 -1.527 4.506 -2.902 C 85.643 53.986 85.632 52.98 85.494 52.366 z M 62.846 41.767 l -4.81 15.804 c 1.478 1.093 2.441 2.843 2.441 4.822 c 0 3.313 -2.686 5.999 -5.999 5.999 c -3.17 0 -5.759 -2.46 -5.978 -5.574 l -18.348 -5.062 c -1.084 1.551 -2.881 2.568 -4.917 2.568 c -3.313 0 -5.999 -2.686 -5.999 -5.999 c 0 -2.209 1.197 -4.133 2.974 -5.175 l -2.971 -15.545 c -2.883 -0.437 -5.096 -2.919 -5.096 -5.924 c 0 -3.313 2.686 -5.999 5.999 -5.999 c 1.572 0 2.998 0.609 4.067 1.598 l 16.743 -8.812 c -0.041 -0.282 -0.069 -0.568 -0.069 -0.862 c 0 -3.313 2.686 -5.999 5.999 -5.999 s 5.999 2.686 5.999 5.999 c 0 1.289 -0.41 2.48 -1.102 3.458 l 9.164 12.948 c 0.52 -0.147 1.066 -0.231 1.632 -0.231 c 3.313 0 5.999 2.686 5.999 5.999 C 68.576 39.004 66.033 41.625 62.846 41.767 z" style="stroke: none; stroke-width: 1; stroke-dasharray: none; stroke-linecap: butt; stroke-linejoin: miter; stroke-miterlimit: 10; fill: rgb(188,188,188); fill-rule: nonzero; opacity: 1;" transform=" matrix(1 0 0 1 0 0) " stroke-linecap="round" />
	<path d="M 35.438 37.03 c 0 -0.148 0.012 -0.294 0.022 -0.44 l -10.948 -4.806 c -0.393 0.419 -0.845 0.78 -1.344 1.073 l 2.971 15.545 c 0.526 0.08 1.031 0.223 1.503 0.43 l 8.472 -9.044 C 35.684 38.962 35.438 38.025 35.438 37.03 z" style="stroke: none; stroke-width: 1; stroke-dasharray: none; stroke-linecap: butt; stroke-linejoin: miter; stroke-miterlimit: 10; fill: rgb(188,188,188); fill-rule: nonzero; opacity: 1;" transform=" matrix(1 0 0 1 0 0) " stroke-linecap="round" />
	<path d="M 41.437 43.029 c -0.856 0 -1.669 -0.182 -2.406 -0.506 l -8.472 9.044 c 0.367 0.707 0.595 1.497 0.654 2.334 l 18.347 5.062 c 0.168 -0.241 0.355 -0.467 0.556 -0.68 l -7.874 -15.314 C 41.978 43.004 41.711 43.029 41.437 43.029 z" style="stroke: none; stroke-width: 1; stroke-dasharray: none; stroke-linecap: butt; stroke-linejoin: miter; stroke-miterlimit: 10; fill: rgb(188,188,188); fill-rule: nonzero; opacity: 1;" transform=" matrix(1 0 0 1 0 0) " stroke-linecap="round" />
	<path d="M 56.995 37.969 l -9.84 0.877 c -0.276 0.868 -0.746 1.648 -1.356 2.295 l 7.873 15.314 c 0.177 -0.024 0.356 -0.039 0.537 -0.047 l 4.81 -15.804 C 58.118 39.938 57.411 39.028 56.995 37.969 z" style="stroke: none; stroke-width: 1; stroke-dasharray: none; stroke-linecap: butt; stroke-linejoin: miter; stroke-miterlimit: 10; fill: rgb(188,188,188); fill-rule: nonzero; opacity: 1;" transform=" matrix(1 0 0 1 0 0) " stroke-linecap="round" />
</g>
</svg>